<svg width="196" height="132" viewBox="0 0 196 132" fill="none" xmlns="http://www.w3.org/2000/svg">
<rect width="196" height="132" rx="5" fill="#C4C4C4"/>
<rect y="23" width="196" height="30" fill="#535353"/>
<rect x="139" y="66" width="39" height="24" fill="white"/>
<rect x="10" y="107" width="56" height="2" rx="1" fill="#535353"/>
<rect x="10" y="111" width="56" height="2" rx="1" fill="#535353"/>
<rect x="10" y="115" width="56" height="2" rx="1" fill="#535353"/>
<path d="M151.664 83H150.574V75.7754L148.389 76.5781V75.5938L151.494 74.4277H151.664V83ZM160.43 83H154.84V82.2207L157.793 78.9395C158.23 78.4434 158.531 78.041 158.695 77.7324C158.863 77.4199 158.947 77.0977 158.947 76.7656C158.947 76.3203 158.812 75.9551 158.543 75.6699C158.273 75.3848 157.914 75.2422 157.465 75.2422C156.926 75.2422 156.506 75.3965 156.205 75.7051C155.908 76.0098 155.76 76.4355 155.76 76.9824H154.676C154.676 76.1973 154.928 75.5625 155.432 75.0781C155.939 74.5938 156.617 74.3516 157.465 74.3516C158.258 74.3516 158.885 74.5605 159.346 74.9785C159.807 75.3926 160.037 75.9453 160.037 76.6367C160.037 77.4766 159.502 78.4766 158.432 79.6367L156.146 82.1152H160.43V83ZM163.154 78.207H163.969C164.48 78.1992 164.883 78.0645 165.176 77.8027C165.469 77.541 165.615 77.1875 165.615 76.7422C165.615 75.7422 165.117 75.2422 164.121 75.2422C163.652 75.2422 163.277 75.377 162.996 75.6465C162.719 75.9121 162.58 76.2656 162.58 76.707H161.496C161.496 76.0312 161.742 75.4707 162.234 75.0254C162.73 74.5762 163.359 74.3516 164.121 74.3516C164.926 74.3516 165.557 74.5645 166.014 74.9902C166.471 75.416 166.699 76.0078 166.699 76.7656C166.699 77.1367 166.578 77.4961 166.336 77.8438C166.098 78.1914 165.771 78.4512 165.357 78.623C165.826 78.7715 166.188 79.0176 166.441 79.3613C166.699 79.7051 166.828 80.125 166.828 80.6211C166.828 81.3867 166.578 81.9941 166.078 82.4434C165.578 82.8926 164.928 83.1172 164.127 83.1172C163.326 83.1172 162.674 82.9004 162.17 82.4668C161.67 82.0332 161.42 81.4609 161.42 80.75H162.51C162.51 81.1992 162.656 81.5586 162.949 81.8281C163.242 82.0977 163.635 82.2324 164.127 82.2324C164.65 82.2324 165.051 82.0957 165.328 81.8223C165.605 81.5488 165.744 81.1562 165.744 80.6445C165.744 80.1484 165.592 79.7676 165.287 79.502C164.982 79.2363 164.543 79.0996 163.969 79.0918H163.154V78.207Z" fill="black"/>
<circle cx="158" cy="79" r="19.5" stroke="#FF0072"/>
</svg>
