<svg width="17" height="17" viewBox="0 0 17 17" fill="none" xmlns="http://www.w3.org/2000/svg">
<circle cx="8.5" cy="8.5" r="8" stroke="#C4C4C4"/>
<path d="M10.7542 12.0313C10.2663 11.9141 9.93295 11.57 9.92893 11.1795V8.21206C9.92771 7.80402 9.65611 7.42422 9.20692 7.20302C8.79315 6.99607 8.27837 6.94413 7.80843 7.06199L6.24579 7.45005C6.09908 7.48694 6 7.59135 6 7.7092C6 7.82706 6.09908 7.93147 6.24579 7.96822C6.73387 8.08541 7.06723 8.42966 7.07089 8.82026V11.7877C7.07211 12.1958 7.34389 12.5756 7.7929 12.7968C8.20668 13.0041 8.72163 13.0559 9.19157 12.9378L10.7542 12.5487C10.9009 12.5118 11 12.4074 11 12.2895C11 12.1717 10.9009 12.0682 10.7542 12.0313Z" fill="#C4C4C4"/>
<path d="M8.5 6C9.32852 6 10 5.32837 10 4.5C10 3.67163 9.32852 3 8.5 3C7.67163 3 7 3.67163 7 4.5C7.00103 5.32808 7.67207 5.99897 8.5 6Z" fill="#C4C4C4"/>
</svg>
